<svg aria-hidden="true" style="position: absolute; width: 0; height: 0; overflow: hidden;" version="1.1" xmlns="http://www.w3.org/2000/svg" xmlns:xlink="http://www.w3.org/1999/xlink">
<defs>
<symbol id="icon-Burger" viewBox="0 0 32 32">
<path   d="M30 4h-28c-1.103 0-2 0.975-2 2.175s0.897 2.175 2 2.175h28c1.103 0 2-0.975 2-2.175s-0.897-2.175-2-2.175zM30 13.825h-28c-1.103 0-2 0.975-2 2.175s0.897 2.175 2 2.175h28c1.103 0 2-0.975 2-2.175s-0.897-2.175-2-2.175zM30 23.65h-28c-1.103 0-2 0.975-2 2.175s0.897 2.175 2 2.175h28c1.103 0 2-0.975 2-2.175s-0.897-2.175-2-2.175z"></path>
</symbol>
<symbol id="icon-Cart" viewBox="0 0 28 32">
<path d="M25.667 8h-5v-1.6c0-1.697-0.702-3.325-1.953-4.525s-2.946-1.875-4.714-1.875-3.464 0.674-4.714 1.875c-1.25 1.2-1.953 2.828-1.953 4.525v1.6h-5c-0.442 0-0.866 0.169-1.179 0.469s-0.488 0.707-0.488 1.131v17.6c0 1.273 0.527 2.494 1.464 3.394s2.209 1.406 3.536 1.406h16.667c1.326 0 2.598-0.506 3.536-1.406s1.464-2.121 1.464-3.394v-17.6c0-0.424-0.176-0.831-0.488-1.131s-0.737-0.469-1.179-0.469zM10.667 6.4c0-0.849 0.351-1.663 0.976-2.263s1.473-0.937 2.357-0.937c0.884 0 1.732 0.337 2.357 0.937s0.976 1.414 0.976 2.263v1.6h-6.667v-1.6zM24 27.2c0 0.424-0.176 0.831-0.488 1.131s-0.737 0.469-1.179 0.469h-16.667c-0.442 0-0.866-0.169-1.178-0.469s-0.488-0.707-0.488-1.131v-16h3.333v1.6c0 0.424 0.176 0.831 0.488 1.131s0.736 0.469 1.179 0.469 0.866-0.169 1.178-0.469c0.313-0.3 0.488-0.707 0.488-1.131v-1.6h6.667v1.6c0 0.424 0.176 0.831 0.488 1.131s0.737 0.469 1.179 0.469 0.866-0.169 1.179-0.469c0.313-0.3 0.488-0.707 0.488-1.131v-1.6h3.333v16z"></path>
</symbol>
<symbol id="icon-Cross" viewBox="0 0 32 32">
<path d="M26.322 2.142l-10.607 10.607-10.607-10.607c-0.469-0.469-1.105-0.732-1.768-0.732s-1.299 0.263-1.768 0.732c-0.469 0.469-0.732 1.105-0.732 1.768s0.263 1.299 0.732 1.768l10.607 10.607-10.607 10.607c-0.469 0.469-0.732 1.105-0.732 1.768s0.263 1.299 0.732 1.768c0.469 0.469 1.105 0.732 1.768 0.732s1.299-0.263 1.768-0.732l10.607-10.607 10.607 10.607c0.469 0.469 1.105 0.732 1.768 0.732s1.299-0.263 1.768-0.732c0.469-0.469 0.732-1.105 0.732-1.768s-0.263-1.299-0.732-1.768l-10.607-10.607 10.607-10.607c0.469-0.469 0.732-1.105 0.732-1.768s-0.263-1.299-0.732-1.768c-0.469-0.469-1.105-0.732-1.768-0.732s-1.299 0.263-1.768 0.732z"></path>
</symbol>
<symbol id="icon-Heart" viewBox="0 0 24 24">
<path d="M12 21.35L10.55 20.03C5.4 15.36 2 12.28 2 8.5C2 5.42 4.42 3 7.5 3C9.24 3 10.91 3.81 12 5.08C13.09 3.81 14.76 3 16.5 3C19.58 3 22 5.42 22 8.5C22 12.28 18.6 15.36 13.45 20.04L12 21.35Z" stroke="#F17FDE" strokeWidth="2" fill="none" />
</symbol>
<symbol id="icon-Heart-Active" viewBox="0 0 24 24">
<path  d="M12 21.35L10.55 20.03C5.4 15.36 2 12.28 2 8.5C2 5.42 4.42 3 7.5 3C9.24 3 10.91 3.81 12 5.08C13.09 3.81 14.76 3 16.5 3C19.58 3 22 5.42 22 8.5C22 12.28 18.6 15.36 13.45 20.04L12 21.35Z" />
</symbol>
<symbol id="icon-Instagram" viewBox="0 0 32 32">
<path d="M22 0h-12c-2.652 0-5.196 1.054-7.071 2.929s-2.929 4.419-2.929 7.071v12c0 2.652 1.054 5.196 2.929 7.071s4.419 2.929 7.071 2.929h12c2.652 0 5.196-1.054 7.071-2.929s2.929-4.419 2.929-7.071v-12c0-2.652-1.054-5.196-2.929-7.071s-4.419-2.929-7.071-2.929zM29 22c0 3.86-3.14 7-7 7h-12c-3.86 0-7-3.14-7-7v-12c0-3.86 3.14-7 7-7h12c3.86 0 7 3.14 7 7v12z"></path>
<path d="M16.533 7.467c-2.122 0-4.157 0.843-5.657 2.343s-2.343 3.535-2.343 5.657c0 2.122 0.843 4.157 2.343 5.657s3.535 2.343 5.657 2.343 4.157-0.843 5.657-2.343c1.5-1.5 2.343-3.535 2.343-5.657s-0.843-4.157-2.343-5.657c-1.5-1.5-3.535-2.343-5.657-2.343zM16.533 20.467c-1.326-0.002-2.596-0.529-3.534-1.466s-1.465-2.208-1.466-3.534c0-2.758 2.244-5 5-5s5 2.242 5 5c0 2.756-2.244 5-5 5z"></path>
<path d="M24.533 8.532c0.589 0 1.066-0.477 1.066-1.066s-0.477-1.066-1.066-1.066c-0.589 0-1.066 0.477-1.066 1.066s0.477 1.066 1.066 1.066z"></path>
</symbol>
<symbol id="icon-Minus" viewBox="0 0 32 32">
<path d="M30 12.8h-28c-0.53 0-1.039 0.211-1.414 0.586s-0.586 0.884-0.586 1.414c0 0.53 0.211 1.039 0.586 1.414s0.884 0.586 1.414 0.586h28c0.53 0 1.039-0.211 1.414-0.586s0.586-0.884 0.586-1.414c0-0.53-0.211-1.039-0.586-1.414s-0.884-0.586-1.414-0.586z"></path>
</symbol>
<symbol id="icon-Plus" viewBox="0 0 31 32">
<path d="M28.591 13.804h-11.364v-11.467c0-0.507-0.2-0.993-0.555-1.351s-0.837-0.56-1.339-0.56c-0.502 0-0.984 0.201-1.339 0.56s-0.555 0.845-0.555 1.351v11.467h-11.364c-0.502 0-0.984 0.201-1.339 0.56s-0.555 0.844-0.555 1.351c0 0.507 0.2 0.993 0.555 1.351s0.837 0.56 1.339 0.56h11.364v11.467c0 0.507 0.199 0.993 0.555 1.351s0.837 0.56 1.339 0.56c0.502 0 0.984-0.201 1.339-0.56s0.555-0.845 0.555-1.351v-11.467h11.364c0.502 0 0.984-0.201 1.339-0.56s0.555-0.845 0.555-1.351c0-0.507-0.199-0.993-0.555-1.351s-0.837-0.56-1.339-0.56z"></path>
</symbol>
<symbol id="icon-Telegram" viewBox="0 0 32 32">
<path stroke-linejoin="miter" stroke-linecap="butt" stroke-miterlimit="4" stroke-width="1.3333" d="M16 0.667v0c2.014-0 4.008 0.396 5.868 1.167s3.551 1.9 4.975 3.324c1.424 1.424 2.553 3.114 3.324 4.975s1.167 3.854 1.167 5.868v0c0 3.033-0.899 5.997-2.584 8.519s-4.080 4.487-6.881 5.647c-2.802 1.161-5.885 1.464-8.859 0.873s-5.707-2.052-7.851-4.196-3.605-4.877-4.196-7.851c-0.592-2.974-0.288-6.057 0.873-8.859s3.126-5.197 5.647-6.881c2.522-1.685 5.486-2.584 8.519-2.584zM21.706 24.492l0.023-0.058 0.012-0.062 3.066-15.658v-0.065c0-0.425-0.156-0.819-0.519-1.059-0.315-0.208-0.67-0.219-0.903-0.202-0.249 0.019-0.481 0.082-0.638 0.132-0.081 0.026-0.15 0.052-0.199 0.071-0.025 0.010-0.045 0.018-0.060 0.024l-0.012 0.005-17.132 6.806c-0.010 0.004-0.024 0.009-0.040 0.015-0.032 0.013-0.075 0.030-0.125 0.053-0.098 0.045-0.234 0.115-0.374 0.212-0.23 0.159-0.712 0.567-0.63 1.223 0.065 0.534 0.425 0.868 0.658 1.036 0.126 0.091 0.246 0.156 0.334 0.198 0.045 0.022 0.083 0.038 0.112 0.050 0.014 0.006 0.027 0.011 0.036 0.015l0.013 0.005 0.005 0.002 0.002 0.001 0.001 0 0 0c0 0 0 0 0.225-0.627l-0.225 0.627 4.628 1.576 6.578-4.232c-0.194 0.177-0.389 0.355-0.585 0.533-0.997 0.908-1.984 1.807-2.721 2.479l-0.868 0.79-0.467-0.37-0.725 6.491 0.482 0.184c0.18 0.069 0.374 0.091 0.564 0.065s0.371-0.1 0.526-0.214l0.029-0.021 0.027-0.025 2.373-2.189 3.936 3.058 0.042 0.024c0.223 0.126 0.47 0.203 0.725 0.225v0c0.255 0.023 0.512-0.009 0.753-0.094s0.462-0.22 0.647-0.397v0c0.185-0.177 0.33-0.391 0.425-0.629z"></path>
</symbol>
<symbol id="icon-Viber" viewBox="0 0 29 32">
<path d="M9.066 6.716c-0.283-0.042-0.571 0.016-0.816 0.162h-0.021c-0.57 0.336-1.084 0.758-1.521 1.256-0.365 0.423-0.562 0.85-0.614 1.262-0.030 0.244-0.009 0.491 0.062 0.725l0.027 0.015c0.41 1.21 0.945 2.374 1.599 3.469 0.843 1.538 1.88 2.961 3.086 4.234l0.036 0.052 0.058 0.043 0.035 0.041 0.043 0.037c1.272 1.213 2.693 2.259 4.229 3.113 1.755 0.96 2.821 1.413 3.461 1.602v0.009c0.187 0.058 0.357 0.084 0.529 0.084 0.545-0.039 1.061-0.262 1.465-0.632 0.494-0.439 0.912-0.957 1.237-1.532v-0.011c0.305-0.58 0.202-1.126-0.239-1.497-0.885-0.777-1.842-1.467-2.859-2.060-0.681-0.371-1.373-0.146-1.652 0.229l-0.597 0.757c-0.307 0.375-0.863 0.323-0.863 0.323l-0.015 0.009c-4.151-1.063-5.259-5.282-5.259-5.282s-0.052-0.574 0.333-0.867l0.748-0.604c0.359-0.293 0.608-0.986 0.223-1.669-0.589-1.020-1.275-1.981-2.047-2.868-0.169-0.208-0.406-0.351-0.669-0.401zM16.081 4.882c-0.202 0-0.395 0.080-0.537 0.223s-0.223 0.337-0.223 0.539c0 0.202 0.080 0.396 0.223 0.539s0.336 0.223 0.537 0.223c1.921 0 3.517 0.63 4.78 1.838 0.649 0.661 1.155 1.443 1.487 2.301 0.333 0.859 0.485 1.776 0.445 2.694-0.009 0.202 0.063 0.4 0.2 0.549s0.327 0.238 0.528 0.246c0.202 0.008 0.398-0.064 0.547-0.201s0.237-0.328 0.245-0.53c0.045-1.13-0.141-2.257-0.549-3.311-0.409-1.059-1.032-2.023-1.83-2.829l-0.015-0.015c-1.567-1.503-3.549-2.269-5.838-2.269z"></path>
<path d="M15.352 7.325c-0.201 0-0.395 0.080-0.537 0.223s-0.223 0.337-0.223 0.539c0 0.202 0.080 0.396 0.223 0.539s0.336 0.223 0.537 0.223h0.026c1.386 0.099 2.395 0.563 3.102 1.324 0.725 0.784 1.1 1.759 1.072 2.964-0.005 0.202 0.071 0.398 0.21 0.544s0.331 0.231 0.532 0.236c0.201 0.005 0.397-0.071 0.542-0.211s0.23-0.332 0.235-0.534c0.036-1.582-0.471-2.948-1.477-4.037v-0.003c-1.029-1.108-2.441-1.694-4.14-1.808l-0.026-0.003-0.076 0.002z"></path>
<path d="M15.419 9.768c-0.102-0.009-0.204 0.003-0.301 0.034s-0.187 0.083-0.264 0.15-0.14 0.149-0.185 0.241c-0.045 0.092-0.071 0.192-0.076 0.295s0.010 0.205 0.045 0.301c0.035 0.096 0.089 0.185 0.159 0.259s0.154 0.135 0.247 0.177c0.093 0.042 0.194 0.064 0.296 0.066 0.635 0.034 1.041 0.226 1.297 0.484 0.257 0.259 0.448 0.676 0.483 1.327 0.002 0.102 0.024 0.203 0.066 0.297s0.101 0.178 0.176 0.247 0.163 0.124 0.258 0.159c0.096 0.035 0.198 0.050 0.3 0.045s0.202-0.031 0.293-0.076c0.092-0.045 0.173-0.108 0.24-0.185s0.118-0.167 0.149-0.265c0.031-0.097 0.043-0.2 0.034-0.302-0.049-0.915-0.334-1.724-0.92-2.319-0.588-0.595-1.389-0.885-2.298-0.934z"></path>
<path d="M7.322 0.814c4.837-1.085 9.852-1.085 14.689 0l0.515 0.114c1.413 0.318 2.712 1.023 3.75 2.036s1.778 2.296 2.135 3.705c1.229 4.856 1.229 9.943 0 14.799-0.357 1.409-1.096 2.692-2.135 3.705s-2.337 1.718-3.75 2.036l-0.517 0.114c-3.029 0.679-6.138 0.935-9.237 0.761l-4.032 3.622c-0.152 0.137-0.338 0.23-0.538 0.27s-0.407 0.025-0.6-0.043c-0.193-0.068-0.363-0.186-0.495-0.343s-0.218-0.346-0.252-0.548l-0.667-4c-1.279-0.4-2.435-1.123-3.357-2.099s-1.579-2.173-1.91-3.476c-1.229-4.856-1.229-9.943 0-14.799 0.357-1.409 1.096-2.692 2.135-3.705s2.337-1.718 3.75-2.036l0.515-0.114zM21.514 3.046c-4.509-1.012-9.186-1.012-13.695 0l-0.517 0.116c-1.002 0.226-1.922 0.726-2.658 1.444s-1.26 1.627-1.513 2.626c-1.135 4.487-1.135 9.187 0 13.674 0.253 0.999 0.777 1.908 1.514 2.627s1.657 1.218 2.659 1.444l0.137 0.030c0.221 0.050 0.423 0.165 0.579 0.33s0.259 0.373 0.297 0.598l0.447 2.682 2.845-2.555c0.114-0.102 0.247-0.181 0.391-0.231s0.297-0.070 0.45-0.059c3.039 0.215 6.092-0.013 9.065-0.679l0.515-0.116c1.002-0.226 1.922-0.726 2.659-1.444s1.26-1.628 1.514-2.627c1.134-4.486 1.134-9.186 0-13.674-0.253-0.999-0.777-1.908-1.514-2.626s-1.657-1.218-2.659-1.444l-0.515-0.116z"></path>
</symbol>
<symbol id='icon-Trash' viewBox='0 0 20 20'>
<path d="M6.03864 6.22131H7.42325V16.2422H6.03864V6.22131Z"/>
<path d="M8.80774 6.22131H10.1924V16.2422H8.80774V6.22131Z"/>
<path d="M11.5768 6.22131H12.9614V16.2422H11.5768V6.22131Z"/>
<path d="M0.5 2.4635H18.5V3.71611H0.5V2.4635Z"/>
<path d="M12.9154 3.08977H11.6231V1.83716C11.6231 1.46138 11.3 1.16911 10.8847 1.16911H8.11542C7.70004 1.16911 7.37696 1.46138 7.37696 1.83716V3.08977H6.08466V1.83716C6.08466 0.835072 7.00773 0 8.11542 0H10.8847C11.9923 0 12.9154 0.835072 12.9154 1.83716V3.08977Z"/>
<path d="M13.6538 20H5.34606C4.23837 20 3.26914 19.1649 3.17683 18.1628L1.88452 3.13148L3.26914 3.04797L4.56145 18.0793C4.6076 18.4551 4.97683 18.7474 5.34606 18.7474H13.6538C14.0691 18.7474 14.4384 18.4133 14.4384 18.0793L15.7307 3.04797L17.1153 3.13148L15.823 18.1628C15.7307 19.2067 14.7614 20 13.6538 20Z"/>

</symbol>
</defs>
</svg>
